M48
;DRILL file {KiCad 4.0.2-1.fc23-product} date Wed 18 May 2016 10:01:27 AM CDT
;FORMAT={2:4/ absolute / inch / suppress trailing zeros}
FMAT,2
INCH,LZ
T1C0.028
T2C0.028
T3C0.039
T4C0.047
T5C0.098
%
G90
G05
M72
T1
X044429Y-036238
X044429Y-037638
X044429Y-039038
X049429Y-036238
X049429Y-037638
X049429Y-039038
X063327Y-036159
X063327Y-037559
X063327Y-038959
X068327Y-036159
X068327Y-037559
X068327Y-038959
T2
X051975Y-035821
X052363Y-039133
X054804Y-032993
X055191Y-041962
X057677Y-041928
X058037Y-032999
X060505Y-0391
X060865Y-035827
T3
X04685Y-033661
X04685Y-041535
X065748Y-033465
X065748Y-041535
T4
X051181Y-033858
X052953Y-03189
X055276Y-044252
X057677Y-044291
X059843Y-031693
X061614Y-033661
T5
X050597Y-041146
X056397Y-031546
X062097Y-041146
T0
M30
