G04 #@! TF.FileFunction,Legend,Top*
%FSLAX46Y46*%
G04 Gerber Fmt 4.6, Leading zero omitted, Abs format (unit mm)*
G04 Created by KiCad (PCBNEW 4.0.2-1.fc23-product) date Wed 18 May 2016 10:01:14 AM CDT*
%MOMM*%
G01*
G04 APERTURE LIST*
%ADD10C,0.100000*%
%ADD11C,0.300000*%
%ADD12C,0.200000*%
%ADD13C,0.150000*%
%ADD14C,0.127000*%
G04 APERTURE END LIST*
D10*
D11*
X156670572Y-79280571D02*
X155813429Y-79280571D01*
X156242001Y-79280571D02*
X156242001Y-77780571D01*
X156099144Y-77994857D01*
X155956286Y-78137714D01*
X155813429Y-78209143D01*
X158099143Y-79280571D02*
X157242000Y-79280571D01*
X157670572Y-79280571D02*
X157670572Y-77780571D01*
X157527715Y-77994857D01*
X157384857Y-78137714D01*
X157242000Y-78209143D01*
X158742000Y-79137714D02*
X158813428Y-79209143D01*
X158742000Y-79280571D01*
X158670571Y-79209143D01*
X158742000Y-79137714D01*
X158742000Y-79280571D01*
X158742000Y-78352000D02*
X158813428Y-78423429D01*
X158742000Y-78494857D01*
X158670571Y-78423429D01*
X158742000Y-78352000D01*
X158742000Y-78494857D01*
X160242000Y-79280571D02*
X159384857Y-79280571D01*
X159813429Y-79280571D02*
X159813429Y-77780571D01*
X159670572Y-77994857D01*
X159527714Y-78137714D01*
X159384857Y-78209143D01*
X161670571Y-79280571D02*
X160813428Y-79280571D01*
X161242000Y-79280571D02*
X161242000Y-77780571D01*
X161099143Y-77994857D01*
X160956285Y-78137714D01*
X160813428Y-78209143D01*
X125642858Y-78534571D02*
X125642858Y-79534571D01*
X125285715Y-77963143D02*
X124928572Y-79034571D01*
X125857144Y-79034571D01*
X126714286Y-78034571D02*
X126857143Y-78034571D01*
X127000000Y-78106000D01*
X127071429Y-78177429D01*
X127142858Y-78320286D01*
X127214286Y-78606000D01*
X127214286Y-78963143D01*
X127142858Y-79248857D01*
X127071429Y-79391714D01*
X127000000Y-79463143D01*
X126857143Y-79534571D01*
X126714286Y-79534571D01*
X126571429Y-79463143D01*
X126500000Y-79391714D01*
X126428572Y-79248857D01*
X126357143Y-78963143D01*
X126357143Y-78606000D01*
X126428572Y-78320286D01*
X126500000Y-78177429D01*
X126571429Y-78106000D01*
X126714286Y-78034571D01*
X127928571Y-79534571D02*
X128214286Y-79534571D01*
X128357143Y-79463143D01*
X128428571Y-79391714D01*
X128571429Y-79177429D01*
X128642857Y-78891714D01*
X128642857Y-78320286D01*
X128571429Y-78177429D01*
X128500000Y-78106000D01*
X128357143Y-78034571D01*
X128071429Y-78034571D01*
X127928571Y-78106000D01*
X127857143Y-78177429D01*
X127785714Y-78320286D01*
X127785714Y-78677429D01*
X127857143Y-78820286D01*
X127928571Y-78891714D01*
X128071429Y-78963143D01*
X128357143Y-78963143D01*
X128500000Y-78891714D01*
X128571429Y-78820286D01*
X128642857Y-78677429D01*
X129928571Y-78034571D02*
X129642857Y-78034571D01*
X129500000Y-78106000D01*
X129428571Y-78177429D01*
X129285714Y-78391714D01*
X129214285Y-78677429D01*
X129214285Y-79248857D01*
X129285714Y-79391714D01*
X129357142Y-79463143D01*
X129500000Y-79534571D01*
X129785714Y-79534571D01*
X129928571Y-79463143D01*
X130000000Y-79391714D01*
X130071428Y-79248857D01*
X130071428Y-78891714D01*
X130000000Y-78748857D01*
X129928571Y-78677429D01*
X129785714Y-78606000D01*
X129500000Y-78606000D01*
X129357142Y-78677429D01*
X129285714Y-78748857D01*
X129214285Y-78891714D01*
X122976286Y-108884571D02*
X122976286Y-108098857D01*
X122904857Y-107956000D01*
X122762000Y-107884571D01*
X122476286Y-107884571D01*
X122333429Y-107956000D01*
X122976286Y-108813143D02*
X122833429Y-108884571D01*
X122476286Y-108884571D01*
X122333429Y-108813143D01*
X122262000Y-108670286D01*
X122262000Y-108527429D01*
X122333429Y-108384571D01*
X122476286Y-108313143D01*
X122833429Y-108313143D01*
X122976286Y-108241714D01*
X124333429Y-108884571D02*
X124333429Y-107384571D01*
X124333429Y-108813143D02*
X124190572Y-108884571D01*
X123904858Y-108884571D01*
X123762000Y-108813143D01*
X123690572Y-108741714D01*
X123619143Y-108598857D01*
X123619143Y-108170286D01*
X123690572Y-108027429D01*
X123762000Y-107956000D01*
X123904858Y-107884571D01*
X124190572Y-107884571D01*
X124333429Y-107956000D01*
X125690572Y-108884571D02*
X125690572Y-108098857D01*
X125619143Y-107956000D01*
X125476286Y-107884571D01*
X125190572Y-107884571D01*
X125047715Y-107956000D01*
X125690572Y-108813143D02*
X125547715Y-108884571D01*
X125190572Y-108884571D01*
X125047715Y-108813143D01*
X124976286Y-108670286D01*
X124976286Y-108527429D01*
X125047715Y-108384571D01*
X125190572Y-108313143D01*
X125547715Y-108313143D01*
X125690572Y-108241714D01*
X126404858Y-107884571D02*
X126404858Y-109384571D01*
X126404858Y-107956000D02*
X126547715Y-107884571D01*
X126833429Y-107884571D01*
X126976286Y-107956000D01*
X127047715Y-108027429D01*
X127119144Y-108170286D01*
X127119144Y-108598857D01*
X127047715Y-108741714D01*
X126976286Y-108813143D01*
X126833429Y-108884571D01*
X126547715Y-108884571D01*
X126404858Y-108813143D01*
X127547715Y-107884571D02*
X128119144Y-107884571D01*
X127762001Y-107384571D02*
X127762001Y-108670286D01*
X127833429Y-108813143D01*
X127976287Y-108884571D01*
X128119144Y-108884571D01*
X129190572Y-108813143D02*
X129047715Y-108884571D01*
X128762001Y-108884571D01*
X128619144Y-108813143D01*
X128547715Y-108670286D01*
X128547715Y-108098857D01*
X128619144Y-107956000D01*
X128762001Y-107884571D01*
X129047715Y-107884571D01*
X129190572Y-107956000D01*
X129262001Y-108098857D01*
X129262001Y-108241714D01*
X128547715Y-108384571D01*
X130547715Y-108884571D02*
X130547715Y-107384571D01*
X130547715Y-108813143D02*
X130404858Y-108884571D01*
X130119144Y-108884571D01*
X129976286Y-108813143D01*
X129904858Y-108741714D01*
X129833429Y-108598857D01*
X129833429Y-108170286D01*
X129904858Y-108027429D01*
X129976286Y-107956000D01*
X130119144Y-107884571D01*
X130404858Y-107884571D01*
X130547715Y-107956000D01*
X132404858Y-108884571D02*
X132404858Y-107384571D01*
X132404858Y-107956000D02*
X132547715Y-107884571D01*
X132833429Y-107884571D01*
X132976286Y-107956000D01*
X133047715Y-108027429D01*
X133119144Y-108170286D01*
X133119144Y-108598857D01*
X133047715Y-108741714D01*
X132976286Y-108813143D01*
X132833429Y-108884571D01*
X132547715Y-108884571D01*
X132404858Y-108813143D01*
X133619144Y-107884571D02*
X133976287Y-108884571D01*
X134333429Y-107884571D02*
X133976287Y-108884571D01*
X133833429Y-109241714D01*
X133762001Y-109313143D01*
X133619144Y-109384571D01*
X121404857Y-111284571D02*
X121404857Y-110284571D01*
X121404857Y-110427429D02*
X121476285Y-110356000D01*
X121619143Y-110284571D01*
X121833428Y-110284571D01*
X121976285Y-110356000D01*
X122047714Y-110498857D01*
X122047714Y-111284571D01*
X122047714Y-110498857D02*
X122119143Y-110356000D01*
X122262000Y-110284571D01*
X122476285Y-110284571D01*
X122619143Y-110356000D01*
X122690571Y-110498857D01*
X122690571Y-111284571D01*
X123404857Y-111284571D02*
X123404857Y-110284571D01*
X123404857Y-109784571D02*
X123333428Y-109856000D01*
X123404857Y-109927429D01*
X123476285Y-109856000D01*
X123404857Y-109784571D01*
X123404857Y-109927429D01*
X124047714Y-111213143D02*
X124190571Y-111284571D01*
X124476286Y-111284571D01*
X124619143Y-111213143D01*
X124690571Y-111070286D01*
X124690571Y-110998857D01*
X124619143Y-110856000D01*
X124476286Y-110784571D01*
X124262000Y-110784571D01*
X124119143Y-110713143D01*
X124047714Y-110570286D01*
X124047714Y-110498857D01*
X124119143Y-110356000D01*
X124262000Y-110284571D01*
X124476286Y-110284571D01*
X124619143Y-110356000D01*
X125119143Y-110284571D02*
X125690572Y-110284571D01*
X125333429Y-109784571D02*
X125333429Y-111070286D01*
X125404857Y-111213143D01*
X125547715Y-111284571D01*
X125690572Y-111284571D01*
X126762000Y-111213143D02*
X126619143Y-111284571D01*
X126333429Y-111284571D01*
X126190572Y-111213143D01*
X126119143Y-111070286D01*
X126119143Y-110498857D01*
X126190572Y-110356000D01*
X126333429Y-110284571D01*
X126619143Y-110284571D01*
X126762000Y-110356000D01*
X126833429Y-110498857D01*
X126833429Y-110641714D01*
X126119143Y-110784571D01*
X127476286Y-111284571D02*
X127476286Y-110284571D01*
X127476286Y-110570286D02*
X127547714Y-110427429D01*
X127619143Y-110356000D01*
X127762000Y-110284571D01*
X127904857Y-110284571D01*
X128404857Y-111284571D02*
X128404857Y-109784571D01*
X128404857Y-110356000D02*
X128547714Y-110284571D01*
X128833428Y-110284571D01*
X128976285Y-110356000D01*
X129047714Y-110427429D01*
X129119143Y-110570286D01*
X129119143Y-110998857D01*
X129047714Y-111141714D01*
X128976285Y-111213143D01*
X128833428Y-111284571D01*
X128547714Y-111284571D01*
X128404857Y-111213143D01*
X129976286Y-111284571D02*
X129833428Y-111213143D01*
X129762000Y-111141714D01*
X129690571Y-110998857D01*
X129690571Y-110570286D01*
X129762000Y-110427429D01*
X129833428Y-110356000D01*
X129976286Y-110284571D01*
X130190571Y-110284571D01*
X130333428Y-110356000D01*
X130404857Y-110427429D01*
X130476286Y-110570286D01*
X130476286Y-110998857D01*
X130404857Y-111141714D01*
X130333428Y-111213143D01*
X130190571Y-111284571D01*
X129976286Y-111284571D01*
X131119143Y-110284571D02*
X131119143Y-111284571D01*
X131119143Y-110427429D02*
X131190571Y-110356000D01*
X131333429Y-110284571D01*
X131547714Y-110284571D01*
X131690571Y-110356000D01*
X131762000Y-110498857D01*
X131762000Y-111284571D01*
X132476286Y-110284571D02*
X132476286Y-111284571D01*
X132476286Y-110427429D02*
X132547714Y-110356000D01*
X132690572Y-110284571D01*
X132904857Y-110284571D01*
X133047714Y-110356000D01*
X133119143Y-110498857D01*
X133119143Y-111284571D01*
X133833429Y-111284571D02*
X133833429Y-110284571D01*
X133833429Y-109784571D02*
X133762000Y-109856000D01*
X133833429Y-109927429D01*
X133904857Y-109856000D01*
X133833429Y-109784571D01*
X133833429Y-109927429D01*
X135119143Y-111213143D02*
X134976286Y-111284571D01*
X134690572Y-111284571D01*
X134547715Y-111213143D01*
X134476286Y-111070286D01*
X134476286Y-110498857D01*
X134547715Y-110356000D01*
X134690572Y-110284571D01*
X134976286Y-110284571D01*
X135119143Y-110356000D01*
X135190572Y-110498857D01*
X135190572Y-110641714D01*
X134476286Y-110784571D01*
X125833429Y-112684571D02*
X126404858Y-112684571D01*
X126047715Y-113684571D02*
X126047715Y-112398857D01*
X126119143Y-112256000D01*
X126262001Y-112184571D01*
X126404858Y-112184571D01*
X126904858Y-113684571D02*
X126904858Y-112684571D01*
X126904858Y-112970286D02*
X126976286Y-112827429D01*
X127047715Y-112756000D01*
X127190572Y-112684571D01*
X127333429Y-112684571D01*
X128047715Y-113684571D02*
X127904857Y-113613143D01*
X127833429Y-113541714D01*
X127762000Y-113398857D01*
X127762000Y-112970286D01*
X127833429Y-112827429D01*
X127904857Y-112756000D01*
X128047715Y-112684571D01*
X128262000Y-112684571D01*
X128404857Y-112756000D01*
X128476286Y-112827429D01*
X128547715Y-112970286D01*
X128547715Y-113398857D01*
X128476286Y-113541714D01*
X128404857Y-113613143D01*
X128262000Y-113684571D01*
X128047715Y-113684571D01*
X129190572Y-113684571D02*
X129190572Y-112684571D01*
X129190572Y-112827429D02*
X129262000Y-112756000D01*
X129404858Y-112684571D01*
X129619143Y-112684571D01*
X129762000Y-112756000D01*
X129833429Y-112898857D01*
X129833429Y-113684571D01*
X129833429Y-112898857D02*
X129904858Y-112756000D01*
X130047715Y-112684571D01*
X130262000Y-112684571D01*
X130404858Y-112756000D01*
X130476286Y-112898857D01*
X130476286Y-113684571D01*
X155281429Y-110338571D02*
X154781429Y-109624286D01*
X154424286Y-110338571D02*
X154424286Y-108838571D01*
X154995714Y-108838571D01*
X155138572Y-108910000D01*
X155210000Y-108981429D01*
X155281429Y-109124286D01*
X155281429Y-109338571D01*
X155210000Y-109481429D01*
X155138572Y-109552857D01*
X154995714Y-109624286D01*
X154424286Y-109624286D01*
X155924286Y-110338571D02*
X155924286Y-108838571D01*
X156638572Y-110338571D02*
X156638572Y-108838571D01*
X157495715Y-110338571D01*
X157495715Y-108838571D01*
X158995715Y-108910000D02*
X158852858Y-108838571D01*
X158638572Y-108838571D01*
X158424287Y-108910000D01*
X158281429Y-109052857D01*
X158210001Y-109195714D01*
X158138572Y-109481429D01*
X158138572Y-109695714D01*
X158210001Y-109981429D01*
X158281429Y-110124286D01*
X158424287Y-110267143D01*
X158638572Y-110338571D01*
X158781429Y-110338571D01*
X158995715Y-110267143D01*
X159067144Y-110195714D01*
X159067144Y-109695714D01*
X158781429Y-109695714D01*
X150531428Y-112738571D02*
X150531428Y-111238571D01*
X151031428Y-112310000D01*
X151531428Y-111238571D01*
X151531428Y-112738571D01*
X152531428Y-111238571D02*
X152817142Y-111238571D01*
X152960000Y-111310000D01*
X153102857Y-111452857D01*
X153174285Y-111738571D01*
X153174285Y-112238571D01*
X153102857Y-112524286D01*
X152960000Y-112667143D01*
X152817142Y-112738571D01*
X152531428Y-112738571D01*
X152388571Y-112667143D01*
X152245714Y-112524286D01*
X152174285Y-112238571D01*
X152174285Y-111738571D01*
X152245714Y-111452857D01*
X152388571Y-111310000D01*
X152531428Y-111238571D01*
X153817143Y-112738571D02*
X153817143Y-111238571D01*
X154174286Y-111238571D01*
X154388571Y-111310000D01*
X154531429Y-111452857D01*
X154602857Y-111595714D01*
X154674286Y-111881429D01*
X154674286Y-112095714D01*
X154602857Y-112381429D01*
X154531429Y-112524286D01*
X154388571Y-112667143D01*
X154174286Y-112738571D01*
X153817143Y-112738571D01*
X155317143Y-111238571D02*
X155317143Y-112452857D01*
X155388571Y-112595714D01*
X155460000Y-112667143D01*
X155602857Y-112738571D01*
X155888571Y-112738571D01*
X156031429Y-112667143D01*
X156102857Y-112595714D01*
X156174286Y-112452857D01*
X156174286Y-111238571D01*
X157602858Y-112738571D02*
X156888572Y-112738571D01*
X156888572Y-111238571D01*
X158031429Y-112310000D02*
X158745715Y-112310000D01*
X157888572Y-112738571D02*
X158388572Y-111238571D01*
X158888572Y-112738571D01*
X159174286Y-111238571D02*
X160031429Y-111238571D01*
X159602858Y-112738571D02*
X159602858Y-111238571D01*
X160817143Y-111238571D02*
X161102857Y-111238571D01*
X161245715Y-111310000D01*
X161388572Y-111452857D01*
X161460000Y-111738571D01*
X161460000Y-112238571D01*
X161388572Y-112524286D01*
X161245715Y-112667143D01*
X161102857Y-112738571D01*
X160817143Y-112738571D01*
X160674286Y-112667143D01*
X160531429Y-112524286D01*
X160460000Y-112238571D01*
X160460000Y-111738571D01*
X160531429Y-111452857D01*
X160674286Y-111310000D01*
X160817143Y-111238571D01*
X162960001Y-112738571D02*
X162460001Y-112024286D01*
X162102858Y-112738571D02*
X162102858Y-111238571D01*
X162674286Y-111238571D01*
X162817144Y-111310000D01*
X162888572Y-111381429D01*
X162960001Y-111524286D01*
X162960001Y-111738571D01*
X162888572Y-111881429D01*
X162817144Y-111952857D01*
X162674286Y-112024286D01*
X162102858Y-112024286D01*
D12*
X127023810Y-115452381D02*
X127023810Y-114452381D01*
X127452382Y-115452381D02*
X127452382Y-114928571D01*
X127404763Y-114833333D01*
X127309525Y-114785714D01*
X127166667Y-114785714D01*
X127071429Y-114833333D01*
X127023810Y-114880952D01*
X127785715Y-114785714D02*
X128166667Y-114785714D01*
X127928572Y-114452381D02*
X127928572Y-115309524D01*
X127976191Y-115404762D01*
X128071429Y-115452381D01*
X128166667Y-115452381D01*
X128357144Y-114785714D02*
X128738096Y-114785714D01*
X128500001Y-114452381D02*
X128500001Y-115309524D01*
X128547620Y-115404762D01*
X128642858Y-115452381D01*
X128738096Y-115452381D01*
X129071430Y-114785714D02*
X129071430Y-115785714D01*
X129071430Y-114833333D02*
X129166668Y-114785714D01*
X129357145Y-114785714D01*
X129452383Y-114833333D01*
X129500002Y-114880952D01*
X129547621Y-114976190D01*
X129547621Y-115261905D01*
X129500002Y-115357143D01*
X129452383Y-115404762D01*
X129357145Y-115452381D01*
X129166668Y-115452381D01*
X129071430Y-115404762D01*
X129928573Y-115404762D02*
X130023811Y-115452381D01*
X130214287Y-115452381D01*
X130309526Y-115404762D01*
X130357145Y-115309524D01*
X130357145Y-115261905D01*
X130309526Y-115166667D01*
X130214287Y-115119048D01*
X130071430Y-115119048D01*
X129976192Y-115071429D01*
X129928573Y-114976190D01*
X129928573Y-114928571D01*
X129976192Y-114833333D01*
X130071430Y-114785714D01*
X130214287Y-114785714D01*
X130309526Y-114833333D01*
X130785716Y-115357143D02*
X130833335Y-115404762D01*
X130785716Y-115452381D01*
X130738097Y-115404762D01*
X130785716Y-115357143D01*
X130785716Y-115452381D01*
X130785716Y-114833333D02*
X130833335Y-114880952D01*
X130785716Y-114928571D01*
X130738097Y-114880952D01*
X130785716Y-114833333D01*
X130785716Y-114928571D01*
X131976192Y-114404762D02*
X131119049Y-115690476D01*
X133023811Y-114404762D02*
X132166668Y-115690476D01*
X133261906Y-114785714D02*
X133452382Y-115452381D01*
X133642859Y-114976190D01*
X133833335Y-115452381D01*
X134023811Y-114785714D01*
X134309525Y-114785714D02*
X134500001Y-115452381D01*
X134690478Y-114976190D01*
X134880954Y-115452381D01*
X135071430Y-114785714D01*
X135357144Y-114785714D02*
X135547620Y-115452381D01*
X135738097Y-114976190D01*
X135928573Y-115452381D01*
X136119049Y-114785714D01*
X136500001Y-115357143D02*
X136547620Y-115404762D01*
X136500001Y-115452381D01*
X136452382Y-115404762D01*
X136500001Y-115357143D01*
X136500001Y-115452381D01*
X137404763Y-115452381D02*
X137404763Y-114928571D01*
X137357144Y-114833333D01*
X137261906Y-114785714D01*
X137071429Y-114785714D01*
X136976191Y-114833333D01*
X137404763Y-115404762D02*
X137309525Y-115452381D01*
X137071429Y-115452381D01*
X136976191Y-115404762D01*
X136928572Y-115309524D01*
X136928572Y-115214286D01*
X136976191Y-115119048D01*
X137071429Y-115071429D01*
X137309525Y-115071429D01*
X137404763Y-115023810D01*
X137833334Y-115404762D02*
X137928572Y-115452381D01*
X138119048Y-115452381D01*
X138214287Y-115404762D01*
X138261906Y-115309524D01*
X138261906Y-115261905D01*
X138214287Y-115166667D01*
X138119048Y-115119048D01*
X137976191Y-115119048D01*
X137880953Y-115071429D01*
X137833334Y-114976190D01*
X137833334Y-114928571D01*
X137880953Y-114833333D01*
X137976191Y-114785714D01*
X138119048Y-114785714D01*
X138214287Y-114833333D01*
X139119049Y-115404762D02*
X139023811Y-115452381D01*
X138833334Y-115452381D01*
X138738096Y-115404762D01*
X138690477Y-115357143D01*
X138642858Y-115261905D01*
X138642858Y-114976190D01*
X138690477Y-114880952D01*
X138738096Y-114833333D01*
X138833334Y-114785714D01*
X139023811Y-114785714D01*
X139119049Y-114833333D01*
X139547620Y-115452381D02*
X139547620Y-114785714D01*
X139547620Y-114452381D02*
X139500001Y-114500000D01*
X139547620Y-114547619D01*
X139595239Y-114500000D01*
X139547620Y-114452381D01*
X139547620Y-114547619D01*
X140023810Y-115452381D02*
X140023810Y-114785714D01*
X140023810Y-114452381D02*
X139976191Y-114500000D01*
X140023810Y-114547619D01*
X140071429Y-114500000D01*
X140023810Y-114452381D01*
X140023810Y-114547619D01*
X140500000Y-114785714D02*
X140500000Y-115785714D01*
X140500000Y-114833333D02*
X140595238Y-114785714D01*
X140785715Y-114785714D01*
X140880953Y-114833333D01*
X140928572Y-114880952D01*
X140976191Y-114976190D01*
X140976191Y-115261905D01*
X140928572Y-115357143D01*
X140880953Y-115404762D01*
X140785715Y-115452381D01*
X140595238Y-115452381D01*
X140500000Y-115404762D01*
X141404762Y-115452381D02*
X141404762Y-114785714D01*
X141404762Y-114976190D02*
X141452381Y-114880952D01*
X141500000Y-114833333D01*
X141595238Y-114785714D01*
X141690477Y-114785714D01*
X142214286Y-114452381D02*
X142309525Y-114452381D01*
X142404763Y-114500000D01*
X142452382Y-114547619D01*
X142500001Y-114642857D01*
X142547620Y-114833333D01*
X142547620Y-115071429D01*
X142500001Y-115261905D01*
X142452382Y-115357143D01*
X142404763Y-115404762D01*
X142309525Y-115452381D01*
X142214286Y-115452381D01*
X142119048Y-115404762D01*
X142071429Y-115357143D01*
X142023810Y-115261905D01*
X141976191Y-115071429D01*
X141976191Y-114833333D01*
X142023810Y-114642857D01*
X142071429Y-114547619D01*
X142119048Y-114500000D01*
X142214286Y-114452381D01*
X142976191Y-114785714D02*
X142976191Y-115452381D01*
X142976191Y-114880952D02*
X143023810Y-114833333D01*
X143119048Y-114785714D01*
X143261906Y-114785714D01*
X143357144Y-114833333D01*
X143404763Y-114928571D01*
X143404763Y-115452381D01*
X143880953Y-115357143D02*
X143928572Y-115404762D01*
X143880953Y-115452381D01*
X143833334Y-115404762D01*
X143880953Y-115357143D01*
X143880953Y-115452381D01*
X144785715Y-115404762D02*
X144690477Y-115452381D01*
X144500000Y-115452381D01*
X144404762Y-115404762D01*
X144357143Y-115357143D01*
X144309524Y-115261905D01*
X144309524Y-114976190D01*
X144357143Y-114880952D01*
X144404762Y-114833333D01*
X144500000Y-114785714D01*
X144690477Y-114785714D01*
X144785715Y-114833333D01*
X145357143Y-115452381D02*
X145261905Y-115404762D01*
X145214286Y-115357143D01*
X145166667Y-115261905D01*
X145166667Y-114976190D01*
X145214286Y-114880952D01*
X145261905Y-114833333D01*
X145357143Y-114785714D01*
X145500001Y-114785714D01*
X145595239Y-114833333D01*
X145642858Y-114880952D01*
X145690477Y-114976190D01*
X145690477Y-115261905D01*
X145642858Y-115357143D01*
X145595239Y-115404762D01*
X145500001Y-115452381D01*
X145357143Y-115452381D01*
X146119048Y-115452381D02*
X146119048Y-114785714D01*
X146119048Y-114880952D02*
X146166667Y-114833333D01*
X146261905Y-114785714D01*
X146404763Y-114785714D01*
X146500001Y-114833333D01*
X146547620Y-114928571D01*
X146547620Y-115452381D01*
X146547620Y-114928571D02*
X146595239Y-114833333D01*
X146690477Y-114785714D01*
X146833334Y-114785714D01*
X146928572Y-114833333D01*
X146976191Y-114928571D01*
X146976191Y-115452381D01*
X148166667Y-114404762D02*
X147309524Y-115690476D01*
X148928572Y-114785714D02*
X148928572Y-115452381D01*
X148690476Y-114404762D02*
X148452381Y-115119048D01*
X149071429Y-115119048D01*
X149642857Y-114452381D02*
X149738096Y-114452381D01*
X149833334Y-114500000D01*
X149880953Y-114547619D01*
X149928572Y-114642857D01*
X149976191Y-114833333D01*
X149976191Y-115071429D01*
X149928572Y-115261905D01*
X149880953Y-115357143D01*
X149833334Y-115404762D01*
X149738096Y-115452381D01*
X149642857Y-115452381D01*
X149547619Y-115404762D01*
X149500000Y-115357143D01*
X149452381Y-115261905D01*
X149404762Y-115071429D01*
X149404762Y-114833333D01*
X149452381Y-114642857D01*
X149500000Y-114547619D01*
X149547619Y-114500000D01*
X149642857Y-114452381D01*
X150452381Y-115452381D02*
X150642857Y-115452381D01*
X150738096Y-115404762D01*
X150785715Y-115357143D01*
X150880953Y-115214286D01*
X150928572Y-115023810D01*
X150928572Y-114642857D01*
X150880953Y-114547619D01*
X150833334Y-114500000D01*
X150738096Y-114452381D01*
X150547619Y-114452381D01*
X150452381Y-114500000D01*
X150404762Y-114547619D01*
X150357143Y-114642857D01*
X150357143Y-114880952D01*
X150404762Y-114976190D01*
X150452381Y-115023810D01*
X150547619Y-115071429D01*
X150738096Y-115071429D01*
X150833334Y-115023810D01*
X150880953Y-114976190D01*
X150928572Y-114880952D01*
X151785715Y-114452381D02*
X151595238Y-114452381D01*
X151500000Y-114500000D01*
X151452381Y-114547619D01*
X151357143Y-114690476D01*
X151309524Y-114880952D01*
X151309524Y-115261905D01*
X151357143Y-115357143D01*
X151404762Y-115404762D01*
X151500000Y-115452381D01*
X151690477Y-115452381D01*
X151785715Y-115404762D01*
X151833334Y-115357143D01*
X151880953Y-115261905D01*
X151880953Y-115023810D01*
X151833334Y-114928571D01*
X151785715Y-114880952D01*
X151690477Y-114833333D01*
X151500000Y-114833333D01*
X151404762Y-114880952D01*
X151357143Y-114928571D01*
X151309524Y-115023810D01*
X153023810Y-114404762D02*
X152166667Y-115690476D01*
X153357143Y-115452381D02*
X153357143Y-114785714D01*
X153357143Y-114976190D02*
X153404762Y-114880952D01*
X153452381Y-114833333D01*
X153547619Y-114785714D01*
X153642858Y-114785714D01*
X153976191Y-115452381D02*
X153976191Y-114785714D01*
X153976191Y-114452381D02*
X153928572Y-114500000D01*
X153976191Y-114547619D01*
X154023810Y-114500000D01*
X153976191Y-114452381D01*
X153976191Y-114547619D01*
X154452381Y-114785714D02*
X154452381Y-115452381D01*
X154452381Y-114880952D02*
X154500000Y-114833333D01*
X154595238Y-114785714D01*
X154738096Y-114785714D01*
X154833334Y-114833333D01*
X154880953Y-114928571D01*
X154880953Y-115452381D01*
X155785715Y-114785714D02*
X155785715Y-115595238D01*
X155738096Y-115690476D01*
X155690477Y-115738095D01*
X155595238Y-115785714D01*
X155452381Y-115785714D01*
X155357143Y-115738095D01*
X155785715Y-115404762D02*
X155690477Y-115452381D01*
X155500000Y-115452381D01*
X155404762Y-115404762D01*
X155357143Y-115357143D01*
X155309524Y-115261905D01*
X155309524Y-114976190D01*
X155357143Y-114880952D01*
X155404762Y-114833333D01*
X155500000Y-114785714D01*
X155690477Y-114785714D01*
X155785715Y-114833333D01*
X156261905Y-115452381D02*
X156261905Y-114785714D01*
X156261905Y-114880952D02*
X156309524Y-114833333D01*
X156404762Y-114785714D01*
X156547620Y-114785714D01*
X156642858Y-114833333D01*
X156690477Y-114928571D01*
X156690477Y-115452381D01*
X156690477Y-114928571D02*
X156738096Y-114833333D01*
X156833334Y-114785714D01*
X156976191Y-114785714D01*
X157071429Y-114833333D01*
X157119048Y-114928571D01*
X157119048Y-115452381D01*
X157738095Y-115452381D02*
X157642857Y-115404762D01*
X157595238Y-115357143D01*
X157547619Y-115261905D01*
X157547619Y-114976190D01*
X157595238Y-114880952D01*
X157642857Y-114833333D01*
X157738095Y-114785714D01*
X157880953Y-114785714D01*
X157976191Y-114833333D01*
X158023810Y-114880952D01*
X158071429Y-114976190D01*
X158071429Y-115261905D01*
X158023810Y-115357143D01*
X157976191Y-115404762D01*
X157880953Y-115452381D01*
X157738095Y-115452381D01*
X158928572Y-115452381D02*
X158928572Y-114452381D01*
X158928572Y-115404762D02*
X158833334Y-115452381D01*
X158642857Y-115452381D01*
X158547619Y-115404762D01*
X158500000Y-115357143D01*
X158452381Y-115261905D01*
X158452381Y-114976190D01*
X158500000Y-114880952D01*
X158547619Y-114833333D01*
X158642857Y-114785714D01*
X158833334Y-114785714D01*
X158928572Y-114833333D01*
X160119048Y-114404762D02*
X159261905Y-115690476D01*
D13*
X151707120Y-101289288D02*
X152694948Y-100301460D01*
X148564031Y-104432377D02*
X147486400Y-105510008D01*
X148294623Y-103624154D02*
X149372254Y-104701785D01*
X148115018Y-103803759D02*
X149192648Y-104881390D01*
X148474228Y-104522180D02*
X149013043Y-105060995D01*
X149013043Y-105060995D02*
X152245936Y-101828103D01*
X152245936Y-101828103D02*
X151168305Y-100750472D01*
X151168305Y-100750472D02*
X147935413Y-103983365D01*
X147935413Y-103983365D02*
X148474228Y-104522180D01*
X138210712Y-104607120D02*
X139198540Y-105594948D01*
X135067623Y-101464031D02*
X133989992Y-100386400D01*
X135875846Y-101194623D02*
X134798215Y-102272254D01*
X135696241Y-101015018D02*
X134618610Y-102092648D01*
X134977820Y-101374228D02*
X134439005Y-101913043D01*
X134439005Y-101913043D02*
X137671897Y-105145936D01*
X137671897Y-105145936D02*
X138749528Y-104068305D01*
X138749528Y-104068305D02*
X135516635Y-100835413D01*
X135516635Y-100835413D02*
X134977820Y-101374228D01*
X149389288Y-85792880D02*
X148401460Y-84805052D01*
X152532377Y-88935969D02*
X153610008Y-90013600D01*
X151724154Y-89205377D02*
X152801785Y-88127746D01*
X151903759Y-89384982D02*
X152981390Y-88307352D01*
X152622180Y-89025772D02*
X153160995Y-88486957D01*
X153160995Y-88486957D02*
X149928103Y-85254064D01*
X149928103Y-85254064D02*
X148850472Y-86331695D01*
X148850472Y-86331695D02*
X152083365Y-89564587D01*
X152083365Y-89564587D02*
X152622180Y-89025772D01*
X133992880Y-89010712D02*
X133005052Y-89998540D01*
X137135969Y-85867623D02*
X138213600Y-84789992D01*
X137405377Y-86675846D02*
X136327746Y-85598215D01*
X137584982Y-86496241D02*
X136507352Y-85418610D01*
X137225772Y-85777820D02*
X136686957Y-85239005D01*
X136686957Y-85239005D02*
X133454064Y-88471897D01*
X133454064Y-88471897D02*
X134531695Y-89549528D01*
X134531695Y-89549528D02*
X137764587Y-86316635D01*
X137764587Y-86316635D02*
X137225772Y-85777820D01*
D14*
X164850500Y-101597600D02*
X161251320Y-101597600D01*
X159750180Y-100099000D02*
X159750180Y-90701000D01*
X169549500Y-89202400D02*
X173148680Y-89202400D01*
X174649820Y-90701000D02*
X174649820Y-100099000D01*
X173148680Y-101597600D02*
X169549500Y-101597600D01*
X169549500Y-84450060D02*
X169549500Y-89202400D01*
X169549500Y-101597600D02*
X169549500Y-106349940D01*
X164850500Y-106349940D02*
X164850500Y-101597600D01*
X164850500Y-89202400D02*
X164850500Y-84450060D01*
X169549500Y-84450060D02*
X164850500Y-84450060D01*
X164850500Y-106349940D02*
X169549500Y-106349940D01*
X169549500Y-89202400D02*
X169549500Y-101597600D01*
X164850500Y-101597600D02*
X164850500Y-89202400D01*
X161251320Y-89202400D02*
X164850500Y-89202400D01*
X167871723Y-85417800D02*
G75*
G03X167871723Y-85417800I-671723J0D01*
G01*
X167200000Y-84467840D02*
X167200000Y-86370300D01*
X166250040Y-85417800D02*
X168149960Y-85417800D01*
X167871723Y-105382200D02*
G75*
G03X167871723Y-105382200I-671723J0D01*
G01*
X167200000Y-104429700D02*
X167200000Y-106332160D01*
X166250040Y-105382200D02*
X168149960Y-105382200D01*
X159752720Y-100099000D02*
G75*
G03X161251320Y-101597600I1498600J0D01*
G01*
X161251320Y-89199860D02*
G75*
G03X159750180Y-90701000I0J-1501140D01*
G01*
X174647280Y-90701000D02*
G75*
G03X173148680Y-89202400I-1498600J0D01*
G01*
X173148680Y-101600140D02*
G75*
G03X174649820Y-100099000I0J1501140D01*
G01*
X121549500Y-89402400D02*
X125148680Y-89402400D01*
X126649820Y-90901000D02*
X126649820Y-100299000D01*
X116850500Y-101797600D02*
X113251320Y-101797600D01*
X111750180Y-100299000D02*
X111750180Y-90901000D01*
X113251320Y-89402400D02*
X116850500Y-89402400D01*
X116850500Y-106549940D02*
X116850500Y-101797600D01*
X116850500Y-89402400D02*
X116850500Y-84650060D01*
X121549500Y-84650060D02*
X121549500Y-89402400D01*
X121549500Y-101797600D02*
X121549500Y-106549940D01*
X116850500Y-106549940D02*
X121549500Y-106549940D01*
X121549500Y-84650060D02*
X116850500Y-84650060D01*
X116850500Y-101797600D02*
X116850500Y-89402400D01*
X121549500Y-89402400D02*
X121549500Y-101797600D01*
X125148680Y-101797600D02*
X121549500Y-101797600D01*
X119871723Y-105582200D02*
G75*
G03X119871723Y-105582200I-671723J0D01*
G01*
X119200000Y-106532160D02*
X119200000Y-104629700D01*
X120149960Y-105582200D02*
X118250040Y-105582200D01*
X119871723Y-85617800D02*
G75*
G03X119871723Y-85617800I-671723J0D01*
G01*
X119200000Y-86570300D02*
X119200000Y-84667840D01*
X120149960Y-85617800D02*
X118250040Y-85617800D01*
X126647280Y-90901000D02*
G75*
G03X125148680Y-89402400I-1498600J0D01*
G01*
X125148680Y-101800140D02*
G75*
G03X126649820Y-100299000I0J1501140D01*
G01*
X111752720Y-100299000D02*
G75*
G03X113251320Y-101797600I1498600J0D01*
G01*
X113251320Y-89399860D02*
G75*
G03X111750180Y-90901000I0J-1501140D01*
G01*
D13*
X151932183Y-105296092D02*
X151225076Y-104588985D01*
X151393435Y-104420626D01*
X151528122Y-104353282D01*
X151662809Y-104353282D01*
X151763824Y-104386954D01*
X151932183Y-104487969D01*
X152033199Y-104588985D01*
X152134214Y-104757343D01*
X152167885Y-104858359D01*
X152167885Y-104993045D01*
X152100541Y-105127733D01*
X151932183Y-105296092D01*
X153009679Y-104218595D02*
X152605618Y-104622657D01*
X152807648Y-104420626D02*
X152100541Y-103713520D01*
X152134213Y-103881878D01*
X152134213Y-104016565D01*
X152100541Y-104117580D01*
X134203908Y-104832183D02*
X134911015Y-104125076D01*
X135079374Y-104293435D01*
X135146718Y-104428122D01*
X135146718Y-104562809D01*
X135113046Y-104663824D01*
X135012031Y-104832183D01*
X134911015Y-104933199D01*
X134742657Y-105034214D01*
X134641641Y-105067885D01*
X134506955Y-105067885D01*
X134372267Y-105000541D01*
X134203908Y-104832183D01*
X135517107Y-104865854D02*
X135584450Y-104865854D01*
X135685465Y-104899526D01*
X135853825Y-105067885D01*
X135887496Y-105168901D01*
X135887496Y-105236244D01*
X135853825Y-105337259D01*
X135786481Y-105404603D01*
X135651794Y-105471946D01*
X134843672Y-105471946D01*
X135281405Y-105909679D01*
X151712504Y-85163757D02*
X152419611Y-84456650D01*
X152587970Y-84625009D01*
X152655314Y-84759696D01*
X152655314Y-84894383D01*
X152621642Y-84995398D01*
X152520627Y-85163757D01*
X152419611Y-85264773D01*
X152251253Y-85365788D01*
X152150237Y-85399459D01*
X152015551Y-85399459D01*
X151880863Y-85332115D01*
X151712504Y-85163757D01*
X153059374Y-85096413D02*
X153497108Y-85534146D01*
X152992031Y-85567817D01*
X153093047Y-85668833D01*
X153126719Y-85769848D01*
X153126719Y-85837192D01*
X153093046Y-85938208D01*
X152924688Y-86106566D01*
X152823672Y-86140238D01*
X152756329Y-86140238D01*
X152655314Y-86106566D01*
X152453283Y-85904535D01*
X152419611Y-85803520D01*
X152419611Y-85736177D01*
X133363757Y-86687496D02*
X132656650Y-85980389D01*
X132825009Y-85812030D01*
X132959696Y-85744686D01*
X133094383Y-85744686D01*
X133195398Y-85778358D01*
X133363757Y-85879373D01*
X133464773Y-85980389D01*
X133565788Y-86148747D01*
X133599459Y-86249763D01*
X133599459Y-86384449D01*
X133532115Y-86519137D01*
X133363757Y-86687496D01*
X133902505Y-85205938D02*
X134373910Y-85677343D01*
X133464772Y-85104924D02*
X133801490Y-85778359D01*
X134239223Y-85340626D01*
X155761905Y-82142381D02*
X155761905Y-81142381D01*
X156142858Y-81142381D01*
X156238096Y-81190000D01*
X156285715Y-81237619D01*
X156333334Y-81332857D01*
X156333334Y-81475714D01*
X156285715Y-81570952D01*
X156238096Y-81618571D01*
X156142858Y-81666190D01*
X155761905Y-81666190D01*
X157285715Y-82142381D02*
X156714286Y-82142381D01*
X157000000Y-82142381D02*
X157000000Y-81142381D01*
X156904762Y-81285238D01*
X156809524Y-81380476D01*
X156714286Y-81428095D01*
X151261905Y-77142381D02*
X151261905Y-76142381D01*
X151642858Y-76142381D01*
X151738096Y-76190000D01*
X151785715Y-76237619D01*
X151833334Y-76332857D01*
X151833334Y-76475714D01*
X151785715Y-76570952D01*
X151738096Y-76618571D01*
X151642858Y-76666190D01*
X151261905Y-76666190D01*
X152214286Y-76237619D02*
X152261905Y-76190000D01*
X152357143Y-76142381D01*
X152595239Y-76142381D01*
X152690477Y-76190000D01*
X152738096Y-76237619D01*
X152785715Y-76332857D01*
X152785715Y-76428095D01*
X152738096Y-76570952D01*
X152166667Y-77142381D01*
X152785715Y-77142381D01*
X145761905Y-109142381D02*
X145761905Y-108142381D01*
X146142858Y-108142381D01*
X146238096Y-108190000D01*
X146285715Y-108237619D01*
X146333334Y-108332857D01*
X146333334Y-108475714D01*
X146285715Y-108570952D01*
X146238096Y-108618571D01*
X146142858Y-108666190D01*
X145761905Y-108666190D01*
X146666667Y-108142381D02*
X147285715Y-108142381D01*
X146952381Y-108523333D01*
X147095239Y-108523333D01*
X147190477Y-108570952D01*
X147238096Y-108618571D01*
X147285715Y-108713810D01*
X147285715Y-108951905D01*
X147238096Y-109047143D01*
X147190477Y-109094762D01*
X147095239Y-109142381D01*
X146809524Y-109142381D01*
X146714286Y-109094762D01*
X146666667Y-109047143D01*
X139661905Y-109042381D02*
X139661905Y-108042381D01*
X140042858Y-108042381D01*
X140138096Y-108090000D01*
X140185715Y-108137619D01*
X140233334Y-108232857D01*
X140233334Y-108375714D01*
X140185715Y-108470952D01*
X140138096Y-108518571D01*
X140042858Y-108566190D01*
X139661905Y-108566190D01*
X141090477Y-108375714D02*
X141090477Y-109042381D01*
X140852381Y-107994762D02*
X140614286Y-108709048D01*
X141233334Y-108709048D01*
X129261905Y-82642381D02*
X129261905Y-81642381D01*
X129642858Y-81642381D01*
X129738096Y-81690000D01*
X129785715Y-81737619D01*
X129833334Y-81832857D01*
X129833334Y-81975714D01*
X129785715Y-82070952D01*
X129738096Y-82118571D01*
X129642858Y-82166190D01*
X129261905Y-82166190D01*
X130738096Y-81642381D02*
X130261905Y-81642381D01*
X130214286Y-82118571D01*
X130261905Y-82070952D01*
X130357143Y-82023333D01*
X130595239Y-82023333D01*
X130690477Y-82070952D01*
X130738096Y-82118571D01*
X130785715Y-82213810D01*
X130785715Y-82451905D01*
X130738096Y-82547143D01*
X130690477Y-82594762D01*
X130595239Y-82642381D01*
X130357143Y-82642381D01*
X130261905Y-82594762D01*
X130214286Y-82547143D01*
X133761905Y-77642381D02*
X133761905Y-76642381D01*
X134142858Y-76642381D01*
X134238096Y-76690000D01*
X134285715Y-76737619D01*
X134333334Y-76832857D01*
X134333334Y-76975714D01*
X134285715Y-77070952D01*
X134238096Y-77118571D01*
X134142858Y-77166190D01*
X133761905Y-77166190D01*
X135190477Y-76642381D02*
X135000000Y-76642381D01*
X134904762Y-76690000D01*
X134857143Y-76737619D01*
X134761905Y-76880476D01*
X134714286Y-77070952D01*
X134714286Y-77451905D01*
X134761905Y-77547143D01*
X134809524Y-77594762D01*
X134904762Y-77642381D01*
X135095239Y-77642381D01*
X135190477Y-77594762D01*
X135238096Y-77547143D01*
X135285715Y-77451905D01*
X135285715Y-77213810D01*
X135238096Y-77118571D01*
X135190477Y-77070952D01*
X135095239Y-77023333D01*
X134904762Y-77023333D01*
X134809524Y-77070952D01*
X134761905Y-77118571D01*
X134714286Y-77213810D01*
X165666667Y-81642381D02*
X165333333Y-81166190D01*
X165095238Y-81642381D02*
X165095238Y-80642381D01*
X165476191Y-80642381D01*
X165571429Y-80690000D01*
X165619048Y-80737619D01*
X165666667Y-80832857D01*
X165666667Y-80975714D01*
X165619048Y-81070952D01*
X165571429Y-81118571D01*
X165476191Y-81166190D01*
X165095238Y-81166190D01*
X166095238Y-81118571D02*
X166428572Y-81118571D01*
X166571429Y-81642381D02*
X166095238Y-81642381D01*
X166095238Y-80642381D01*
X166571429Y-80642381D01*
X167333334Y-81118571D02*
X167000000Y-81118571D01*
X167000000Y-81642381D02*
X167000000Y-80642381D01*
X167476191Y-80642381D01*
X168000000Y-80642381D02*
X168000000Y-80880476D01*
X167761905Y-80785238D02*
X168000000Y-80880476D01*
X168238096Y-80785238D01*
X167857143Y-81070952D02*
X168000000Y-80880476D01*
X168142858Y-81070952D01*
X168761905Y-80642381D02*
X168761905Y-80880476D01*
X168523810Y-80785238D02*
X168761905Y-80880476D01*
X169000001Y-80785238D01*
X168619048Y-81070952D02*
X168761905Y-80880476D01*
X168904763Y-81070952D01*
X165666667Y-102142381D02*
X165333333Y-101666190D01*
X165095238Y-102142381D02*
X165095238Y-101142381D01*
X165476191Y-101142381D01*
X165571429Y-101190000D01*
X165619048Y-101237619D01*
X165666667Y-101332857D01*
X165666667Y-101475714D01*
X165619048Y-101570952D01*
X165571429Y-101618571D01*
X165476191Y-101666190D01*
X165095238Y-101666190D01*
X166095238Y-101618571D02*
X166428572Y-101618571D01*
X166571429Y-102142381D02*
X166095238Y-102142381D01*
X166095238Y-101142381D01*
X166571429Y-101142381D01*
X167333334Y-101618571D02*
X167000000Y-101618571D01*
X167000000Y-102142381D02*
X167000000Y-101142381D01*
X167476191Y-101142381D01*
X168000000Y-101142381D02*
X168000000Y-101380476D01*
X167761905Y-101285238D02*
X168000000Y-101380476D01*
X168238096Y-101285238D01*
X167857143Y-101570952D02*
X168000000Y-101380476D01*
X168142858Y-101570952D01*
X168761905Y-101142381D02*
X168761905Y-101380476D01*
X168523810Y-101285238D02*
X168761905Y-101380476D01*
X169000001Y-101285238D01*
X168619048Y-101570952D02*
X168761905Y-101380476D01*
X168904763Y-101570952D01*
X117666667Y-82142381D02*
X117333333Y-81666190D01*
X117095238Y-82142381D02*
X117095238Y-81142381D01*
X117476191Y-81142381D01*
X117571429Y-81190000D01*
X117619048Y-81237619D01*
X117666667Y-81332857D01*
X117666667Y-81475714D01*
X117619048Y-81570952D01*
X117571429Y-81618571D01*
X117476191Y-81666190D01*
X117095238Y-81666190D01*
X118095238Y-81618571D02*
X118428572Y-81618571D01*
X118571429Y-82142381D02*
X118095238Y-82142381D01*
X118095238Y-81142381D01*
X118571429Y-81142381D01*
X119333334Y-81618571D02*
X119000000Y-81618571D01*
X119000000Y-82142381D02*
X119000000Y-81142381D01*
X119476191Y-81142381D01*
X120000000Y-81142381D02*
X120000000Y-81380476D01*
X119761905Y-81285238D02*
X120000000Y-81380476D01*
X120238096Y-81285238D01*
X119857143Y-81570952D02*
X120000000Y-81380476D01*
X120142858Y-81570952D01*
X120761905Y-81142381D02*
X120761905Y-81380476D01*
X120523810Y-81285238D02*
X120761905Y-81380476D01*
X121000001Y-81285238D01*
X120619048Y-81570952D02*
X120761905Y-81380476D01*
X120904763Y-81570952D01*
X117666667Y-102142381D02*
X117333333Y-101666190D01*
X117095238Y-102142381D02*
X117095238Y-101142381D01*
X117476191Y-101142381D01*
X117571429Y-101190000D01*
X117619048Y-101237619D01*
X117666667Y-101332857D01*
X117666667Y-101475714D01*
X117619048Y-101570952D01*
X117571429Y-101618571D01*
X117476191Y-101666190D01*
X117095238Y-101666190D01*
X118095238Y-101618571D02*
X118428572Y-101618571D01*
X118571429Y-102142381D02*
X118095238Y-102142381D01*
X118095238Y-101142381D01*
X118571429Y-101142381D01*
X119333334Y-101618571D02*
X119000000Y-101618571D01*
X119000000Y-102142381D02*
X119000000Y-101142381D01*
X119476191Y-101142381D01*
X120000000Y-101142381D02*
X120000000Y-101380476D01*
X119761905Y-101285238D02*
X120000000Y-101380476D01*
X120238096Y-101285238D01*
X119857143Y-101570952D02*
X120000000Y-101380476D01*
X120142858Y-101570952D01*
X120761905Y-101142381D02*
X120761905Y-101380476D01*
X120523810Y-101285238D02*
X120761905Y-101380476D01*
X121000001Y-101285238D01*
X120619048Y-101570952D02*
X120761905Y-101380476D01*
X120904763Y-101570952D01*
X127182667Y-101462261D02*
X126849333Y-100986070D01*
X126611238Y-101462261D02*
X126611238Y-100462261D01*
X126992191Y-100462261D01*
X127087429Y-100509880D01*
X127135048Y-100557499D01*
X127182667Y-100652737D01*
X127182667Y-100795594D01*
X127135048Y-100890832D01*
X127087429Y-100938451D01*
X126992191Y-100986070D01*
X126611238Y-100986070D01*
X127611238Y-100938451D02*
X127944572Y-100938451D01*
X128087429Y-101462261D02*
X127611238Y-101462261D01*
X127611238Y-100462261D01*
X128087429Y-100462261D01*
X128849334Y-100938451D02*
X128516000Y-100938451D01*
X128516000Y-101462261D02*
X128516000Y-100462261D01*
X128992191Y-100462261D01*
X129516000Y-100462261D02*
X129516000Y-100700356D01*
X129277905Y-100605118D02*
X129516000Y-100700356D01*
X129754096Y-100605118D01*
X129373143Y-100890832D02*
X129516000Y-100700356D01*
X129658858Y-100890832D01*
X130277905Y-100462261D02*
X130277905Y-100700356D01*
X130039810Y-100605118D02*
X130277905Y-100700356D01*
X130516001Y-100605118D01*
X130135048Y-100890832D02*
X130277905Y-100700356D01*
X130420763Y-100890832D01*
X156392667Y-101462261D02*
X156059333Y-100986070D01*
X155821238Y-101462261D02*
X155821238Y-100462261D01*
X156202191Y-100462261D01*
X156297429Y-100509880D01*
X156345048Y-100557499D01*
X156392667Y-100652737D01*
X156392667Y-100795594D01*
X156345048Y-100890832D01*
X156297429Y-100938451D01*
X156202191Y-100986070D01*
X155821238Y-100986070D01*
X156821238Y-100938451D02*
X157154572Y-100938451D01*
X157297429Y-101462261D02*
X156821238Y-101462261D01*
X156821238Y-100462261D01*
X157297429Y-100462261D01*
X158059334Y-100938451D02*
X157726000Y-100938451D01*
X157726000Y-101462261D02*
X157726000Y-100462261D01*
X158202191Y-100462261D01*
X158726000Y-100462261D02*
X158726000Y-100700356D01*
X158487905Y-100605118D02*
X158726000Y-100700356D01*
X158964096Y-100605118D01*
X158583143Y-100890832D02*
X158726000Y-100700356D01*
X158868858Y-100890832D01*
X159487905Y-100462261D02*
X159487905Y-100700356D01*
X159249810Y-100605118D02*
X159487905Y-100700356D01*
X159726001Y-100605118D01*
X159345048Y-100890832D02*
X159487905Y-100700356D01*
X159630763Y-100890832D01*
X141914667Y-77078261D02*
X141581333Y-76602070D01*
X141343238Y-77078261D02*
X141343238Y-76078261D01*
X141724191Y-76078261D01*
X141819429Y-76125880D01*
X141867048Y-76173499D01*
X141914667Y-76268737D01*
X141914667Y-76411594D01*
X141867048Y-76506832D01*
X141819429Y-76554451D01*
X141724191Y-76602070D01*
X141343238Y-76602070D01*
X142343238Y-76554451D02*
X142676572Y-76554451D01*
X142819429Y-77078261D02*
X142343238Y-77078261D01*
X142343238Y-76078261D01*
X142819429Y-76078261D01*
X143581334Y-76554451D02*
X143248000Y-76554451D01*
X143248000Y-77078261D02*
X143248000Y-76078261D01*
X143724191Y-76078261D01*
X144248000Y-76078261D02*
X144248000Y-76316356D01*
X144009905Y-76221118D02*
X144248000Y-76316356D01*
X144486096Y-76221118D01*
X144105143Y-76506832D02*
X144248000Y-76316356D01*
X144390858Y-76506832D01*
X145009905Y-76078261D02*
X145009905Y-76316356D01*
X144771810Y-76221118D02*
X145009905Y-76316356D01*
X145248001Y-76221118D01*
X144867048Y-76506832D02*
X145009905Y-76316356D01*
X145152763Y-76506832D01*
M02*
