G04 #@! TF.FileFunction,Copper,L2,Bot,Signal*
%FSLAX46Y46*%
G04 Gerber Fmt 4.6, Leading zero omitted, Abs format (unit mm)*
G04 Created by KiCad (PCBNEW 4.0.2-1.fc23-product) date Wed 18 May 2016 10:01:14 AM CDT*
%MOMM*%
G01*
G04 APERTURE LIST*
%ADD10C,0.100000*%
%ADD11C,1.699260*%
%ADD12C,1.297940*%
%ADD13C,3.500120*%
%ADD14C,2.499360*%
%ADD15C,0.006000*%
G04 APERTURE END LIST*
D10*
D11*
X153682777Y-99313631D03*
D10*
G36*
X146498572Y-105296278D02*
X147700130Y-106497836D01*
X146498572Y-107699394D01*
X145297014Y-106497836D01*
X146498572Y-105296278D01*
X146498572Y-105296278D01*
G37*
D11*
X140186369Y-106582777D03*
D10*
G36*
X134203722Y-99398572D02*
X133002164Y-100600130D01*
X131800606Y-99398572D01*
X133002164Y-98197014D01*
X134203722Y-99398572D01*
X134203722Y-99398572D01*
G37*
D11*
X147413631Y-83817223D03*
D10*
G36*
X153396278Y-91001428D02*
X154597836Y-89799870D01*
X155799394Y-91001428D01*
X154597836Y-92202986D01*
X153396278Y-91001428D01*
X153396278Y-91001428D01*
G37*
D11*
X132017223Y-90986369D03*
D10*
G36*
X139201428Y-85003722D02*
X137999870Y-83802164D01*
X139201428Y-82600606D01*
X140402986Y-83802164D01*
X139201428Y-85003722D01*
X139201428Y-85003722D01*
G37*
D12*
X160850000Y-91844000D03*
X160850000Y-95400000D03*
X160850000Y-98956000D03*
X173550000Y-98956000D03*
X173550000Y-95400000D03*
X173550000Y-91844000D03*
X125550000Y-99156000D03*
X125550000Y-95600000D03*
X125550000Y-92044000D03*
X112850000Y-92044000D03*
X112850000Y-95600000D03*
X112850000Y-99156000D03*
D13*
X156500000Y-85500000D03*
X152000000Y-80500000D03*
X146500000Y-112500000D03*
X140400000Y-112400000D03*
X130000000Y-86000000D03*
X134500000Y-81000000D03*
D14*
X167000000Y-85000000D03*
X167000000Y-105500000D03*
X119000000Y-85500000D03*
X119000000Y-105500000D03*
D15*
X153682777Y-99313631D02*
X153682777Y-99317223D01*
X153682777Y-99317223D02*
X149500000Y-103500000D01*
X128656000Y-99156000D02*
X125550000Y-99156000D01*
X132000000Y-102500000D02*
X128656000Y-99156000D01*
X133000000Y-102500000D02*
X132000000Y-102500000D01*
X136000000Y-102500000D02*
X133000000Y-102500000D01*
X137000000Y-103500000D02*
X136000000Y-102500000D01*
X140000000Y-103500000D02*
X137000000Y-103500000D01*
X140500000Y-104000000D02*
X140000000Y-103500000D01*
X142500000Y-106000000D02*
X140500000Y-104000000D01*
X144000000Y-106000000D02*
X142500000Y-106000000D01*
X146500000Y-103500000D02*
X144000000Y-106000000D01*
X149500000Y-103500000D02*
X146500000Y-103500000D01*
X160850000Y-98956000D02*
X157544000Y-98956000D01*
X147500736Y-107500000D02*
X146498572Y-106497836D01*
X149000000Y-107500000D02*
X147500736Y-107500000D01*
X157544000Y-98956000D02*
X149000000Y-107500000D01*
X156500000Y-85500000D02*
X159500000Y-85500000D01*
X159500000Y-85500000D02*
X172956000Y-98956000D01*
X172956000Y-98956000D02*
X173550000Y-98956000D01*
X173550000Y-91844000D02*
X171344000Y-91844000D01*
X160000000Y-80500000D02*
X152000000Y-80500000D01*
X171344000Y-91844000D02*
X160000000Y-80500000D01*
X126006000Y-86000000D02*
X112850000Y-99156000D01*
X130000000Y-86000000D02*
X126006000Y-86000000D01*
X112850000Y-92044000D02*
X115456000Y-92044000D01*
X126500000Y-81000000D02*
X134500000Y-81000000D01*
X115456000Y-92044000D02*
X126500000Y-81000000D01*
M02*
