G04 #@! TF.FileFunction,Copper,L1,Top,Signal*
%FSLAX46Y46*%
G04 Gerber Fmt 4.6, Leading zero omitted, Abs format (unit mm)*
G04 Created by KiCad (PCBNEW 4.0.2-1.fc23-product) date Wed 18 May 2016 10:01:14 AM CDT*
%MOMM*%
G01*
G04 APERTURE LIST*
%ADD10C,0.100000*%
%ADD11C,0.010000*%
%ADD12C,1.699260*%
%ADD13C,1.297940*%
%ADD14C,3.500120*%
%ADD15C,2.499360*%
%ADD16C,0.006000*%
G04 APERTURE END LIST*
D10*
D11*
G36*
X144490546Y-86749612D02*
X145053508Y-86910301D01*
X147023677Y-87801408D01*
X148501304Y-89177965D01*
X149526282Y-91081309D01*
X149758644Y-91785779D01*
X150159447Y-93906938D01*
X150033435Y-95899278D01*
X149354067Y-97969217D01*
X148824744Y-99048860D01*
X148039185Y-100341337D01*
X147050943Y-101707422D01*
X145972686Y-103019894D01*
X144917077Y-104151529D01*
X143996783Y-104975106D01*
X143324469Y-105363400D01*
X143220000Y-105377778D01*
X142692452Y-105128826D01*
X141867744Y-104467970D01*
X140901743Y-103524206D01*
X140645390Y-103246989D01*
X138978362Y-101171412D01*
X137633324Y-99026935D01*
X137162690Y-97992158D01*
X137578398Y-97992158D01*
X137908096Y-98726746D01*
X138530349Y-99552082D01*
X139359425Y-100351002D01*
X140309594Y-101006339D01*
X141136461Y-101359527D01*
X141954697Y-101544407D01*
X142328717Y-101423548D01*
X142449482Y-101077688D01*
X143925556Y-101077688D01*
X143988127Y-101515603D01*
X144303425Y-101619538D01*
X145062826Y-101434479D01*
X145228711Y-101384010D01*
X146313468Y-100868876D01*
X147420387Y-100074860D01*
X147698155Y-99817771D01*
X148458085Y-98880487D01*
X148825019Y-98051280D01*
X148766655Y-97467138D01*
X148300398Y-97263889D01*
X147113939Y-97532994D01*
X145897634Y-98231586D01*
X144838557Y-99196583D01*
X144123782Y-100264902D01*
X143925556Y-101077688D01*
X142449482Y-101077688D01*
X142450706Y-101074184D01*
X142333075Y-100370035D01*
X141895504Y-99504528D01*
X141840292Y-99424658D01*
X140969830Y-98548906D01*
X139805956Y-97794461D01*
X138641240Y-97332149D01*
X138139602Y-97263889D01*
X137626990Y-97465484D01*
X137578398Y-97992158D01*
X137162690Y-97992158D01*
X136701050Y-96977158D01*
X136298302Y-95412392D01*
X136304550Y-93563005D01*
X136735177Y-91610296D01*
X137505967Y-89825485D01*
X138416233Y-88591544D01*
X139616230Y-87696774D01*
X141111047Y-86999054D01*
X141386492Y-86910301D01*
X142567545Y-86606037D01*
X143473944Y-86552474D01*
X144490546Y-86749612D01*
X144490546Y-86749612D01*
G37*
X144490546Y-86749612D02*
X145053508Y-86910301D01*
X147023677Y-87801408D01*
X148501304Y-89177965D01*
X149526282Y-91081309D01*
X149758644Y-91785779D01*
X150159447Y-93906938D01*
X150033435Y-95899278D01*
X149354067Y-97969217D01*
X148824744Y-99048860D01*
X148039185Y-100341337D01*
X147050943Y-101707422D01*
X145972686Y-103019894D01*
X144917077Y-104151529D01*
X143996783Y-104975106D01*
X143324469Y-105363400D01*
X143220000Y-105377778D01*
X142692452Y-105128826D01*
X141867744Y-104467970D01*
X140901743Y-103524206D01*
X140645390Y-103246989D01*
X138978362Y-101171412D01*
X137633324Y-99026935D01*
X137162690Y-97992158D01*
X137578398Y-97992158D01*
X137908096Y-98726746D01*
X138530349Y-99552082D01*
X139359425Y-100351002D01*
X140309594Y-101006339D01*
X141136461Y-101359527D01*
X141954697Y-101544407D01*
X142328717Y-101423548D01*
X142449482Y-101077688D01*
X143925556Y-101077688D01*
X143988127Y-101515603D01*
X144303425Y-101619538D01*
X145062826Y-101434479D01*
X145228711Y-101384010D01*
X146313468Y-100868876D01*
X147420387Y-100074860D01*
X147698155Y-99817771D01*
X148458085Y-98880487D01*
X148825019Y-98051280D01*
X148766655Y-97467138D01*
X148300398Y-97263889D01*
X147113939Y-97532994D01*
X145897634Y-98231586D01*
X144838557Y-99196583D01*
X144123782Y-100264902D01*
X143925556Y-101077688D01*
X142449482Y-101077688D01*
X142450706Y-101074184D01*
X142333075Y-100370035D01*
X141895504Y-99504528D01*
X141840292Y-99424658D01*
X140969830Y-98548906D01*
X139805956Y-97794461D01*
X138641240Y-97332149D01*
X138139602Y-97263889D01*
X137626990Y-97465484D01*
X137578398Y-97992158D01*
X137162690Y-97992158D01*
X136701050Y-96977158D01*
X136298302Y-95412392D01*
X136304550Y-93563005D01*
X136735177Y-91610296D01*
X137505967Y-89825485D01*
X138416233Y-88591544D01*
X139616230Y-87696774D01*
X141111047Y-86999054D01*
X141386492Y-86910301D01*
X142567545Y-86606037D01*
X143473944Y-86552474D01*
X144490546Y-86749612D01*
G36*
X142170310Y-85729220D02*
X141769262Y-85943903D01*
X141223189Y-86128421D01*
X139234655Y-86999370D01*
X137739983Y-88253668D01*
X136677373Y-89970222D01*
X135985021Y-92227938D01*
X135844595Y-92995646D01*
X135673588Y-94495821D01*
X135743669Y-95650798D01*
X136006419Y-96610380D01*
X136337222Y-97800452D01*
X136495656Y-98902416D01*
X136470114Y-99726620D01*
X136248990Y-100083408D01*
X136219121Y-100086111D01*
X135776701Y-99851046D01*
X135337176Y-99440972D01*
X134902881Y-98610101D01*
X134760386Y-97765278D01*
X134835852Y-96736006D01*
X135025287Y-95302300D01*
X135288658Y-93693177D01*
X135585935Y-92137652D01*
X135877086Y-90864743D01*
X136084799Y-90188447D01*
X136898365Y-88792964D01*
X138091172Y-87502089D01*
X139482862Y-86457126D01*
X140893076Y-85799376D01*
X141883029Y-85645822D01*
X142170310Y-85729220D01*
X142170310Y-85729220D01*
G37*
X142170310Y-85729220D02*
X141769262Y-85943903D01*
X141223189Y-86128421D01*
X139234655Y-86999370D01*
X137739983Y-88253668D01*
X136677373Y-89970222D01*
X135985021Y-92227938D01*
X135844595Y-92995646D01*
X135673588Y-94495821D01*
X135743669Y-95650798D01*
X136006419Y-96610380D01*
X136337222Y-97800452D01*
X136495656Y-98902416D01*
X136470114Y-99726620D01*
X136248990Y-100083408D01*
X136219121Y-100086111D01*
X135776701Y-99851046D01*
X135337176Y-99440972D01*
X134902881Y-98610101D01*
X134760386Y-97765278D01*
X134835852Y-96736006D01*
X135025287Y-95302300D01*
X135288658Y-93693177D01*
X135585935Y-92137652D01*
X135877086Y-90864743D01*
X136084799Y-90188447D01*
X136898365Y-88792964D01*
X138091172Y-87502089D01*
X139482862Y-86457126D01*
X140893076Y-85799376D01*
X141883029Y-85645822D01*
X142170310Y-85729220D01*
G36*
X145857661Y-85906753D02*
X147279457Y-86664291D01*
X148642003Y-87777134D01*
X149764938Y-89103981D01*
X150355201Y-90188447D01*
X150615397Y-91068388D01*
X150912655Y-92420522D01*
X151207238Y-94015680D01*
X151459409Y-95624691D01*
X151629431Y-97018386D01*
X151679614Y-97826574D01*
X151478461Y-98743772D01*
X150980557Y-99571630D01*
X150361186Y-100049583D01*
X150159583Y-100086111D01*
X149990466Y-99780145D01*
X149922778Y-99072131D01*
X150043130Y-98079066D01*
X150341545Y-96887844D01*
X150433581Y-96610380D01*
X150721713Y-95494266D01*
X150756371Y-94309659D01*
X150595405Y-92995646D01*
X149998925Y-90566128D01*
X149050119Y-88700669D01*
X147687186Y-87320362D01*
X145848323Y-86346301D01*
X145216811Y-86128421D01*
X144417092Y-85837029D01*
X144307277Y-85678072D01*
X144556971Y-85645822D01*
X145857661Y-85906753D01*
X145857661Y-85906753D01*
G37*
X145857661Y-85906753D02*
X147279457Y-86664291D01*
X148642003Y-87777134D01*
X149764938Y-89103981D01*
X150355201Y-90188447D01*
X150615397Y-91068388D01*
X150912655Y-92420522D01*
X151207238Y-94015680D01*
X151459409Y-95624691D01*
X151629431Y-97018386D01*
X151679614Y-97826574D01*
X151478461Y-98743772D01*
X150980557Y-99571630D01*
X150361186Y-100049583D01*
X150159583Y-100086111D01*
X149990466Y-99780145D01*
X149922778Y-99072131D01*
X150043130Y-98079066D01*
X150341545Y-96887844D01*
X150433581Y-96610380D01*
X150721713Y-95494266D01*
X150756371Y-94309659D01*
X150595405Y-92995646D01*
X149998925Y-90566128D01*
X149050119Y-88700669D01*
X147687186Y-87320362D01*
X145848323Y-86346301D01*
X145216811Y-86128421D01*
X144417092Y-85837029D01*
X144307277Y-85678072D01*
X144556971Y-85645822D01*
X145857661Y-85906753D01*
D12*
X153682777Y-99313631D03*
D10*
G36*
X146498572Y-105296278D02*
X147700130Y-106497836D01*
X146498572Y-107699394D01*
X145297014Y-106497836D01*
X146498572Y-105296278D01*
X146498572Y-105296278D01*
G37*
D12*
X140186369Y-106582777D03*
D10*
G36*
X134203722Y-99398572D02*
X133002164Y-100600130D01*
X131800606Y-99398572D01*
X133002164Y-98197014D01*
X134203722Y-99398572D01*
X134203722Y-99398572D01*
G37*
D12*
X147413631Y-83817223D03*
D10*
G36*
X153396278Y-91001428D02*
X154597836Y-89799870D01*
X155799394Y-91001428D01*
X154597836Y-92202986D01*
X153396278Y-91001428D01*
X153396278Y-91001428D01*
G37*
D12*
X132017223Y-90986369D03*
D10*
G36*
X139201428Y-85003722D02*
X137999870Y-83802164D01*
X139201428Y-82600606D01*
X140402986Y-83802164D01*
X139201428Y-85003722D01*
X139201428Y-85003722D01*
G37*
D13*
X160850000Y-91844000D03*
X160850000Y-95400000D03*
X160850000Y-98956000D03*
X173550000Y-98956000D03*
X173550000Y-95400000D03*
X173550000Y-91844000D03*
X125550000Y-99156000D03*
X125550000Y-95600000D03*
X125550000Y-92044000D03*
X112850000Y-92044000D03*
X112850000Y-95600000D03*
X112850000Y-99156000D03*
D14*
X156500000Y-85500000D03*
X152000000Y-80500000D03*
X146500000Y-112500000D03*
X140400000Y-112400000D03*
X130000000Y-86000000D03*
X134500000Y-81000000D03*
D15*
X167000000Y-85000000D03*
X167000000Y-105500000D03*
X119000000Y-85500000D03*
X119000000Y-105500000D03*
D16*
X154597836Y-91001428D02*
X154597836Y-98398572D01*
X154597836Y-98398572D02*
X153682777Y-99313631D01*
X140186369Y-106582777D02*
X146413631Y-106582777D01*
X146413631Y-106582777D02*
X146498572Y-106497836D01*
X132017223Y-90986369D02*
X132013631Y-90986369D01*
X132013631Y-90986369D02*
X130956000Y-92044000D01*
X130956000Y-92044000D02*
X125550000Y-92044000D01*
X132017223Y-90986369D02*
X132017223Y-98413631D01*
X132017223Y-98413631D02*
X133002164Y-99398572D01*
X147413631Y-83817223D02*
X149682777Y-83817223D01*
X157865554Y-92000000D02*
X160694000Y-92000000D01*
X149682777Y-83817223D02*
X157865554Y-92000000D01*
X160694000Y-92000000D02*
X160850000Y-91844000D01*
X139201428Y-83802164D02*
X147398572Y-83802164D01*
X147398572Y-83802164D02*
X147413631Y-83817223D01*
X146500000Y-112500000D02*
X146500000Y-109500000D01*
X157100000Y-95400000D02*
X160850000Y-95400000D01*
X155500000Y-97000000D02*
X157100000Y-95400000D01*
X155500000Y-100500000D02*
X155500000Y-97000000D01*
X146500000Y-109500000D02*
X155500000Y-100500000D01*
X140400000Y-112400000D02*
X140400000Y-109900000D01*
X128600000Y-95600000D02*
X125550000Y-95600000D01*
X130000000Y-97000000D02*
X128600000Y-95600000D01*
X130000000Y-99500000D02*
X130000000Y-97000000D01*
X140400000Y-109900000D02*
X130000000Y-99500000D01*
M02*
